<?xml version="1.0" standalone="no"?>
<!DOCTYPE svg PUBLIC "-//W3C//DTD SVG 20010904//EN"
 "http://www.w3.org/TR/2001/REC-SVG-20010904/DTD/svg10.dtd">
<svg version="1.0" xmlns="http://www.w3.org/2000/svg"
 width="665.000000pt" height="665.000000pt" viewBox="0 0 665.000000 665.000000"
 preserveAspectRatio="xMidYMid meet">
<metadata>
Created by potrace 1.14, written by Peter Selinger 2001-2017
</metadata>
<g transform="translate(0.000000,665.000000) scale(0.100000,-0.100000)"
fill="#000000" stroke="none">
<path d="M2843 5650 c-18 -4 -44 -15 -59 -24 -54 -36 -54 -30 -54 -748 0 -432
-5 -767 -15 -963 -9 -204 -15 -574 -16 -1152 -1 -844 -1 -853 20 -895 38 -79
161 -132 249 -108 37 9 102 62 102 82 0 5 9 22 21 37 21 28 21 30 19 945 l-1
917 40 79 c69 139 168 260 259 319 94 60 325 105 508 99 267 -9 405 -93 513
-313 40 -79 41 -82 62 -300 20 -207 21 -266 17 -985 -3 -754 -3 -765 17 -800
33 -55 77 -75 170 -75 92 0 137 19 168 72 18 31 18 73 17 948 -1 987 2 921
-51 1185 -26 126 -78 208 -219 346 -148 145 -224 190 -392 236 -71 19 -108 23
-248 23 -141 0 -177 -4 -249 -23 -177 -48 -297 -121 -441 -267 -130 -133 -175
-151 -200 -82 -8 23 -10 225 -10 687 1 408 -2 664 -8 680 -27 69 -121 104
-219 80z"/>
<path d="M1959 4693 c-40 -6 -129 -63 -162 -105 -37 -46 -46 -111 -23 -156 9
-17 16 -42 16 -54 0 -17 20 -39 73 -81 127 -101 191 -100 316 8 60 51 90 115
91 191 0 52 -42 113 -108 155 -70 44 -120 55 -203 42z"/>
<path d="M3755 3805 c-48 -17 -79 -53 -102 -120 -16 -46 -17 -114 -14 -840 3
-697 1 -798 -13 -859 -21 -90 -67 -203 -119 -295 -34 -60 -56 -84 -121 -133
-166 -125 -366 -198 -544 -198 -135 0 -351 78 -425 154 -56 58 -125 194 -153
302 -33 130 -44 383 -52 1239 -7 621 -8 641 -28 675 -33 57 -77 80 -150 80
-72 0 -119 -19 -149 -58 -20 -26 -20 -47 -25 -992 -4 -717 -2 -979 7 -1020 29
-137 52 -212 79 -255 16 -25 43 -70 59 -99 50 -86 82 -121 173 -186 177 -127
342 -188 537 -197 177 -8 329 26 482 108 103 56 239 152 278 198 22 25 64 71
95 101 l55 55 5 -160 c4 -137 8 -165 25 -195 33 -55 77 -75 166 -74 85 1 139
22 172 66 19 26 20 52 18 1304 -2 1022 -5 1284 -15 1309 -19 45 -68 82 -126
94 -63 14 -66 13 -115 -4z"/>
</g>
</svg>
